<?xml version="1.0" encoding="UTF-8"?>
<svg viewBox="0 0 48 48" xmlns="http://www.w3.org/2000/svg" xmlns:xlink="http://www.w3.org/1999/xlink">
 <defs>
  <linearGradient id="a">
   <stop stop-color="#fff" offset="0"/>
   <stop stop-color="#fff" stop-opacity="0" offset="1"/>
  </linearGradient>
  <linearGradient id="k" x1="-28.969" x2="-37.197" y1="-25.327" y2="-9.559" gradientUnits="userSpaceOnUse">
   <stop stop-color="#fff9c6" offset="0"/>
   <stop stop-color="#fff28c" offset=".54167"/>
   <stop stop-color="#ffea85" offset="1"/>
  </linearGradient>
  <linearGradient id="b" x1="284.8" x2="288.9" y1="-441.23" y2="-436.83" gradientUnits="userSpaceOnUse" xlink:href="#a"/>
  <linearGradient id="c" x1="286.67" x2="289.77" y1="-439.48" y2="-436.71" gradientUnits="userSpaceOnUse" xlink:href="#a"/>
  <linearGradient id="d" x1="275.94" x2="279.98" y1="-437.11" y2="-431.92" gradientUnits="userSpaceOnUse" xlink:href="#a"/>
  <linearGradient id="e" x1="285.94" x2="289.39" y1="-439.94" y2="-436.44" gradientUnits="userSpaceOnUse" xlink:href="#a"/>
  <linearGradient id="f" x1="286.51" x2="289.85" y1="-441.29" y2="-436.14" gradientUnits="userSpaceOnUse" xlink:href="#a"/>
  <linearGradient id="g" x1="287.52" x2="289.68" y1="-439.75" y2="-436.32" gradientUnits="userSpaceOnUse" xlink:href="#a"/>
  <linearGradient id="h" x1="271.02" x2="285.03" y1="-441.05" y2="-431.97" gradientUnits="userSpaceOnUse" xlink:href="#a"/>
  <radialGradient id="j" cx="-33.519" cy="-22.113" r="9.5" gradientTransform="matrix(.48774 1.2924 -1.1027 .49724 -41.774 32.415)" gradientUnits="userSpaceOnUse">
   <stop stop-color="#fff7c2" stop-opacity=".6383" offset="0"/>
   <stop stop-color="#fcaf3e" stop-opacity=".18349" offset=".59394"/>
   <stop stop-color="#fcaf3e" stop-opacity=".50459" offset=".83851"/>
   <stop stop-color="#fcaf3e" offset="1"/>
  </radialGradient>
  <radialGradient id="i" cx="24" cy="23.382" r="19.142" gradientTransform="matrix(1.0067 2.2353e-16 -2.2372e-16 1.0075 -.16082 .42698)" gradientUnits="userSpaceOnUse">
   <stop stop-color="#fff" stop-opacity="0" offset="0"/>
   <stop stop-color="#fff" stop-opacity="0" offset=".75"/>
   <stop stop-color="#fff" offset="1"/>
  </radialGradient>
 </defs>
 <g transform="translate(-263.99 459.99)">
  <path d="m280.5-445.5c-2.2708 0-4.1099 1.5503-4.7188 3.625-0.69323-0.36383-1.4445-0.625-2.2812-0.625-2.76 0-5 2.24-5 5 0 0.57893 0.16252 1.1077 0.34375 1.625-1.3735 0.77074-2.3438 2.189-2.3438 3.875 0 2.484 2.016 4.5 4.5 4.5h19c2.484 0 4.5-2.016 4.5-4.5 0-1.686-0.97028-3.1043-2.3438-3.875 0.18124-0.51729 0.34375-1.0461 0.34375-1.625 0-2.76-2.24-5-5-5-0.83674 0-1.588 0.26117-2.2812 0.625-0.60884-2.0747-2.4479-3.625-4.7188-3.625z" fill="#c4c5c2" stroke="#888a85" stroke-miterlimit="2"/>
  <path d="m280.5-445c-2.1897 0-3.7236 1.3358-4.3956 3.8435-0.66846-0.34362-1.5476-0.83335-2.3544-0.83335-2.7165 0-4.7551 1.9388-4.7551 4.5455 0 0.54677 0.26721 1.3334 0.44196 1.822-1.3244 0.72795-2.4368 1.8905-2.4368 3.3726 0 2.346 1.5462 4.2501 4.3393 4.2501h18.321c2.771 0 4.3393-1.904 4.3393-4.2501 0-1.5924-1.1124-2.6667-2.4368-3.3946 0.17476-0.48856 0.46407-1.2532 0.46407-1.7999 0-2.6067-2.1158-4.5676-4.7772-4.5676-0.80687 0-1.6418 0.48974-2.3103 0.83336-0.64885-2.4215-2.25-3.8214-4.4397-3.8214z" fill="url(#h)"/>
  <path transform="matrix(1.0566 0 0 1.0566 -24.198 21.863)" d="m291.69-437.59a3.3125 3.3125 0 1 1 -6.625 0 3.3125 3.3125 0 1 1 6.625 0z" fill="#c4c5c2"/>
  <path transform="matrix(1.0566 0 0 1.0566 -24.198 21.863)" d="m291.69-437.59a3.3125 3.3125 0 1 1 -6.625 0 3.3125 3.3125 0 1 1 6.625 0z" fill="url(#g)"/>
  <path d="m271-438h20v9h-20z" fill="#c4c5c2"/>
  <path transform="matrix(.90566 0 0 .90566 9.8302 -35.689)" d="m291.69-437.59a3.3125 3.3125 0 1 1 -6.625 0 3.3125 3.3125 0 1 1 6.625 0z" fill="#c4c5c2"/>
  <path transform="matrix(1.0566 0 0 1.0566 -17.198 24.863)" d="m291.69-437.59a3.3125 3.3125 0 1 1 -6.625 0 3.3125 3.3125 0 1 1 6.625 0z" fill="#c4c5c2"/>
  <path transform="matrix(1.0566 0 0 1.0566 -17.198 24.863)" d="m291.69-437.59a3.3125 3.3125 0 1 1 -6.625 0 3.3125 3.3125 0 1 1 6.625 0z" fill="url(#f)"/>
  <path transform="matrix(1.0566 0 0 1.0566 -31.198 24.863)" d="m291.69-437.59a3.3125 3.3125 0 1 1 -6.625 0 3.3125 3.3125 0 1 1 6.625 0z" fill="#c4c5c2"/>
  <path transform="matrix(1.0566 0 0 1.0566 -31.198 24.863)" d="m291.69-437.59a3.3125 3.3125 0 1 1 -6.625 0 3.3125 3.3125 0 1 1 6.625 0z" fill="url(#e)"/>
  <g transform="translate(-1)">
   <path d="m280.47-440.97c-3.5794 0-6.4688 2.9206-6.4688 6.5 0 2.3707 1.3494 4.3378 3.25 5.4688h6.4688c1.9006-1.131 3.25-3.1293 3.25-5.5 0-3.5794-2.9206-6.4688-6.5-6.4688z" fill="#c4c5c2"/>
   <path d="m280.5-441c-3.588 0-6.5 2.912-6.5 6.5 0 2.3764 1.3448 4.3663 3.25 5.5h6.5c1.9052-1.1337 3.25-3.1236 3.25-5.5 0-3.588-2.912-6.5-6.5-6.5z" fill="url(#d)"/>
  </g>
  <path transform="matrix(.90566 0 0 .90566 9.8303 -35.689)" d="m291.69-437.59a3.3125 3.3125 0 1 1 -6.625 0 3.3125 3.3125 0 1 1 6.625 0z" fill="url(#c)"/>
  <path d="m292.96-437.33c-0.00153 2.6846-3.2693 3.714-3.2693 3.714s2.3487-1.626 2.3368-3.705l0.93241-0.00894z" fill="#888a85" fill-rule="evenodd"/>
  <path transform="matrix(1.2076 0 0 1.2076 -64.226 95.415)" d="m291.69-437.59a3.3125 3.3125 0 1 1 -6.625 0 3.3125 3.3125 0 1 1 6.625 0z" fill="#c4c5c2"/>
  <path transform="matrix(1.2076 0 0 1.2076 -64.226 95.415)" d="m291.69-437.59a3.3125 3.3125 0 1 1 -6.625 0 3.3125 3.3125 0 1 1 6.625 0z" fill="url(#b)"/>
 </g>
 <g opacity=".7" stroke-linecap="square">
  <path d="m24 2.5-2.375 6.6875c0.77403-0.12337 1.5664-0.1875 2.375-0.1875s1.601 0.06413 2.375 0.1875l-2.375-6.6875zm-15.188 6.2812 3.0312 6.4375c0.93528-1.2902 2.0848-2.4397 3.375-3.375l-6.4062-3.0625zm30.406 0-6.4375 3.0625c1.2902 0.93528 2.4397 2.0848 3.375 3.375l3.0625-6.4375zm-30.031 12.812-6.6875 2.375 6.6875 2.375c-0.12016-0.76423-0.1875-1.5459-0.1875-2.3438 0-0.81938 0.06089-1.6224 0.1875-2.4062zm29.625 0.03125c0.12337 0.77403 0.1875 1.5664 0.1875 2.375s-0.06413 1.601-0.1875 2.375l6.6875-2.375-6.6875-2.375zm-26.969 11.156-3.0312 6.4062 6.4062-3.0312c-1.2902-0.93528-2.4397-2.0848-3.375-3.375zm24.312 0c-0.92646 1.278-2.0686 2.4136-3.3438 3.3438l6.4062 3.0625-3.0625-6.4062zm-14.531 6.0312 2.375 6.6875 2.375-6.6875c-0.77403 0.12337-1.5664 0.1875-2.375 0.1875s-1.601-0.06413-2.375-0.1875z" fill="#fce94f" stroke="#fcaf3e" stroke-width=".73733"/>
  <path d="m24,5.25-1.34375,3.8125c.44264-.03935.89094-.0625 1.34375-.0625s.90111.02315 1.34375.0625l-1.34375-3.8125zm-13.21875,5.5 1.71875,3.625c.57154-.68091 1.224-1.33625 1.90625-1.90625l-3.625-1.71875zm26.46875,0-3.625,1.71875c.67968.56944 1.33681,1.22658 1.90625,1.90625l1.71875-3.625zm-28.1875,11.875-3.78125,1.34375 3.78125,1.34375c-.03752-.43235-.0625-.87047-.0625-1.3125 0-.46359.02127-.92209.0625-1.375zm29.875.03125c.03935.44264.0625.89094.0625,1.34375s-.02315.90111-.0625,1.34375l3.78125-1.34375-3.78125-1.34375zm-3.40625,10.9375c-.57296.68579-1.22127,1.36361-1.90625,1.9375l3.625,1.71875-1.71875-3.65625zm-23.03125.03125-1.71875,3.59375 3.59375-1.71875c-.67207-.56412-1.31088-1.20293-1.875-1.875zm10.15625,5.3125 1.34375,3.78125 1.34375-3.78125c-.44264.03935-.89094.0625-1.34375.0625s-.90111-.02315-1.34375-.0625z" fill="none" stroke="url(#i)" stroke-width=".84646"/>
 </g>
 <path transform="matrix(.77806 -1.0613 1.0613 .77806 67.48 3.6413)" d="m-22.5-17.5a9.5 9.5 0 1 1 -19 0 9.5 9.5 0 1 1 19 0z" fill="#ffee54" stroke="#fcaf3e" stroke-linecap="square" stroke-width=".75991"/>
 <path transform="matrix(1.2443 -.16771 .21664 1.2518 67.616 40.527)" d="m-22.5-17.5a9.5 9.5 0 1 1 -19 0 9.5 9.5 0 1 1 19 0z" fill="url(#j)"/>
 <path transform="matrix(.71579 -.97635 .97635 .71579 64 5.2695)" d="m-22.5-17.5a9.5 9.5 0 1 1 -19 0 9.5 9.5 0 1 1 19 0z" fill="none" stroke="url(#k)" stroke-linecap="square" stroke-width=".82602"/>
 <g transform="translate(-248.99 467.99)">
  <path d="m280.5-445.5c-2.2708 0-4.1099 1.5503-4.7188 3.625-0.69323-0.36383-1.4445-0.625-2.2812-0.625-2.76 0-5 2.24-5 5 0 0.57893 0.16252 1.1077 0.34375 1.625-1.3735 0.77074-2.3438 2.189-2.3438 3.875 0 2.484 2.016 4.5 4.5 4.5h19c2.484 0 4.5-2.016 4.5-4.5 0-1.686-0.97028-3.1043-2.3438-3.875 0.18124-0.51729 0.34375-1.0461 0.34375-1.625 0-2.76-2.24-5-5-5-0.83674 0-1.588 0.26117-2.2812 0.625-0.60884-2.0747-2.4479-3.625-4.7188-3.625z" fill="#c4c5c2" stroke="#888a85" stroke-miterlimit="2"/>
  <path d="m280.5-445c-2.1897 0-3.7236 1.3358-4.3956 3.8435-0.66846-0.34362-1.5476-0.83335-2.3544-0.83335-2.7165 0-4.7551 1.9388-4.7551 4.5455 0 0.54677 0.26721 1.3334 0.44196 1.822-1.3244 0.72795-2.4368 1.8905-2.4368 3.3726 0 2.346 1.5462 4.2501 4.3393 4.2501h18.321c2.771 0 4.3393-1.904 4.3393-4.2501 0-1.5924-1.1124-2.6667-2.4368-3.3946 0.17476-0.48856 0.46407-1.2532 0.46407-1.7999 0-2.6067-2.1158-4.5676-4.7772-4.5676-0.80687 0-1.6418 0.48974-2.3103 0.83336-0.64885-2.4215-2.25-3.8214-4.4397-3.8214z" fill="url(#h)"/>
  <path transform="matrix(1.0566 0 0 1.0566 -24.198 21.863)" d="m291.69-437.59a3.3125 3.3125 0 1 1 -6.625 0 3.3125 3.3125 0 1 1 6.625 0z" fill="#c4c5c2"/>
  <path transform="matrix(1.0566 0 0 1.0566 -24.198 21.863)" d="m291.69-437.59a3.3125 3.3125 0 1 1 -6.625 0 3.3125 3.3125 0 1 1 6.625 0z" fill="url(#g)"/>
  <path d="m271-438h20v9h-20z" fill="#c4c5c2"/>
  <path transform="matrix(.90566 0 0 .90566 9.8302 -35.689)" d="m291.69-437.59a3.3125 3.3125 0 1 1 -6.625 0 3.3125 3.3125 0 1 1 6.625 0z" fill="#c4c5c2"/>
  <path transform="matrix(1.0566 0 0 1.0566 -17.198 24.863)" d="m291.69-437.59a3.3125 3.3125 0 1 1 -6.625 0 3.3125 3.3125 0 1 1 6.625 0z" fill="#c4c5c2"/>
  <path transform="matrix(1.0566 0 0 1.0566 -17.198 24.863)" d="m291.69-437.59a3.3125 3.3125 0 1 1 -6.625 0 3.3125 3.3125 0 1 1 6.625 0z" fill="url(#f)"/>
  <path transform="matrix(1.0566 0 0 1.0566 -31.198 24.863)" d="m291.69-437.59a3.3125 3.3125 0 1 1 -6.625 0 3.3125 3.3125 0 1 1 6.625 0z" fill="#c4c5c2"/>
  <path transform="matrix(1.0566 0 0 1.0566 -31.198 24.863)" d="m291.69-437.59a3.3125 3.3125 0 1 1 -6.625 0 3.3125 3.3125 0 1 1 6.625 0z" fill="url(#e)"/>
  <g transform="translate(-1)">
   <path d="m280.47-440.97c-3.5794 0-6.4688 2.9206-6.4688 6.5 0 2.3707 1.3494 4.3378 3.25 5.4688h6.4688c1.9006-1.131 3.25-3.1293 3.25-5.5 0-3.5794-2.9206-6.4688-6.5-6.4688z" fill="#c4c5c2"/>
   <path d="m280.5-441c-3.588 0-6.5 2.912-6.5 6.5 0 2.3764 1.3448 4.3663 3.25 5.5h6.5c1.9052-1.1337 3.25-3.1236 3.25-5.5 0-3.588-2.912-6.5-6.5-6.5z" fill="url(#d)"/>
  </g>
  <path transform="matrix(.90566 0 0 .90566 9.8303 -35.689)" d="m291.69-437.59a3.3125 3.3125 0 1 1 -6.625 0 3.3125 3.3125 0 1 1 6.625 0z" fill="url(#c)"/>
  <path d="m292.96-437.33c-0.00153 2.6846-3.2693 3.714-3.2693 3.714s2.3487-1.626 2.3368-3.705l0.93241-0.00894z" fill="#888a85" fill-rule="evenodd"/>
  <path transform="matrix(1.2076 0 0 1.2076 -64.226 95.415)" d="m291.69-437.59a3.3125 3.3125 0 1 1 -6.625 0 3.3125 3.3125 0 1 1 6.625 0z" fill="#c4c5c2"/>
  <path transform="matrix(1.2076 0 0 1.2076 -64.226 95.415)" d="m291.69-437.59a3.3125 3.3125 0 1 1 -6.625 0 3.3125 3.3125 0 1 1 6.625 0z" fill="url(#b)"/>
 </g>
</svg>
